<svg
   xmlns:dc="http://purl.org/dc/elements/1.1/"
   xmlns:cc="http://creativecommons.org/ns#"
   xmlns:rdf="http://www.w3.org/1999/02/22-rdf-syntax-ns#"
   xmlns:svg="http://www.w3.org/2000/svg"
   xmlns="http://www.w3.org/2000/svg"
   id="svg43"
   version="1.1"
   viewBox="0 0 380 280">
  <metadata
     id="metadata49">
    <rdf:RDF>
      <cc:Work
         rdf:about="">
        <dc:format>image/svg+xml</dc:format>
        <dc:type
           rdf:resource="http://purl.org/dc/dcmitype/StillImage" />
      </cc:Work>
    </rdf:RDF>
  </metadata>
  <defs
     id="defs47" />
  <svg
     height="100%"
     width="100%"
     id="svg2"
     version="1.1"
     viewBox="0 0 380 280" />
  <g
     transform="translate(56.897812,142.875)"
     id="container">
    <svg
       id="svg20"
       version="1.1"
       height="77.699997"
       width="66"
       y="-39.965"
       x="-10">
      <svg
         height="100%"
         width="100%"
         id="svg18"
         version="1.1"
         viewBox="0 0 66 77.7"
         enable-background="new 0 0 66 77.7">
        <g
           style="clip-rule:evenodd;fill-rule:evenodd"
           id="g16">
          <path
             style="opacity:0.8;fill:#d63862"
             id="path4"
             d="M 55.2,11.4 C 40.7,0.5 7.3,14.1 18.2,46.7 c 10.9,32.6 22.6,38.9 37,21.7 14.4,-17.2 14.4,-46.1 0,-57 z" />
          <path
             style="opacity:0.8;fill:#3b97d4"
             id="path6"
             d="m 51.7,21.5 c -19.1,-8.4 -63.2,2.1 -48.9,27.2 14.3,25.1 29.8,30 48.9,16.8 19.1,-13.2 19.1,-35.6 0,-44 z" />
          <path
             id="ellipse8"
             d="M 19,5.6999998 A 5,6 0 0 1 14,11.7 5,6 0 0 1 9,5.6999998 5,6 0 0 1 14,-0.30000019 5,6 0 0 1 19,5.6999998 Z"
             style="opacity:0.8;fill:#d63862"
             transform="matrix(0.829,-0.5592,0.5592,0.829,-0.7951,8.8012)" />
          <g
             style="fill:#3b97d4"
             id="g14">
            <path
               id="circle10"
               d="m 13,59.700001 a 5,5 0 0 1 -5,5 5,5 0 0 1 -5,-5 5,5 0 0 1 5,-5 5,5 0 0 1 5,5 z"
               style="opacity:0.8" />
            <path
               id="circle12"
               d="m 5,70.199997 a 2.5,2.5 0 0 1 -2.5,2.5 2.5,2.5 0 0 1 -2.5,-2.5 2.5,2.5 0 0 1 2.5,-2.5 2.5,2.5 0 0 1 2.5,2.5 z"
               style="opacity:0.8" />
          </g>
        </g>
      </svg>
    </svg>
    <g
       id="text22"
       style="font-size:38px;font-family:IDMeiLingTi;fill:#ffffff;fill-opacity:1"
       aria-label="S">
      <path
         id="path54"
         style="font-size:38px;font-family:IDMeiLingTi;fill:#ffffff;fill-opacity:1"
         d="m 33.354625,14.0125 h -16.796 v -2.698 h 15.922 v -9.918 h -11.552 q -2.166,0 -3.344,-0.912 -1.14,-0.912 -1.14,-3.04 v -7.828 q 0,-0.798 0.342,-1.482 0.342,-0.684 0.912,-1.14 0.608,-0.494 1.368,-0.76 0.798,-0.266 1.71,-0.266 h 16.91 q 0,1.292 -0.532,2.014 -0.532,0.722 -1.976,0.722 h -13.262 v 9.956 h 11.438 q 2.508,0 3.572,1.216 1.064,1.178 1.064,3.078 v 6.156 q 0,0.874 -0.228,1.9 -0.19,1.026 -0.798,1.71 -0.684,0.76 -1.672,1.026 -0.95,0.266 -1.938,0.266 z" />
    </g>
    <g
       id="text24"
       style="font-size:40px;font-family:IDMeiLingTi;fill:#1d1f21;fill-opacity:1"
       aria-label="y">
      <path
         id="path57"
         style="font-size:40px;font-family:IDMeiLingTi;fill:#1d1f21;fill-opacity:1"
         d="m 51.369376,13.0675 v -2.88 h 13.48 v -5.64 h -13.48 v -17.92 h 4.96 v 15.12 h 8.52 v -15.12 h 5.4 v 21.52 q 0,2.28 -1.04,3.6 -1.04,1.32 -3.28,1.32 z" />
    </g>
    <g
       id="text26"
       style="font-size:40px;font-family:IDMeiLingTi;fill:#1d1f21;fill-opacity:1"
       aria-label="n">
      <path
         id="path60"
         style="font-size:40px;font-family:IDMeiLingTi;fill:#1d1f21;fill-opacity:1"
         d="m 92.064376,-10.8325 q 2.36,0 3.48,1.24 1.12,1.2 1.12,3.52 v 16.72 h -5.64 v -18.68 h -9.92 v 18.68 h -5.44 v -21.48 z" />
    </g>
    <g
       id="text28"
       style="font-size:40px;font-family:IDMeiLingTi;fill:#1d1f21;fill-opacity:1"
       aria-label="e">
      <path
         id="path63"
         style="font-size:40px;font-family:IDMeiLingTi;fill:#1d1f21;fill-opacity:1"
         d="m 107.53938,7.9675 h 15.68 q 0,1.4 -0.6,2.08 -0.6,0.68 -2.04,0.68 h -18.68 v -21.52 h 21.2 v 8.84 q 0,0.92 -0.4,1.68 -0.4,0.72 -1.04,1.24 -0.64,0.52 -1.48,0.8 -0.84,0.28 -1.68,0.28 h -10.96 z m 10.2,-8.64 v -7.4 h -10.04 v 7.4 z" />
    </g>
    <g
       id="text30"
       style="font-size:40px;font-family:IDMeiLingTi;fill:#1d1f21;fill-opacity:1"
       aria-label="s">
      <path
         id="path66"
         style="font-size:40px;font-family:IDMeiLingTi;fill:#1d1f21;fill-opacity:1"
         d="m 143.57438,10.7275 h -14.16 v -2.6 h 13 v -7.16 h -9.32 q -2.04,0.16 -3.04,-0.8 -0.96,-0.96 -0.96,-3.64 v -3.28 q 0,-4.12 4,-4.12 h 14.8 q 0,1.52 -0.48,2.08 -0.44,0.56 -1.8,0.56 h -10.72 v 6.56 h 8.68 q 0.96,0 1.76,0.16 0.84,0.16 1.48,0.6 0.64,0.44 1,1.28 0.36,0.8 0.36,2.16 v 4.24 q 0,2.16 -1.24,3.04 -1.2,0.92 -3.36,0.92 z" />
    </g>
    <g
       id="text32"
       style="font-size:40px;font-family:IDMeiLingTi;fill:#1d1f21;fill-opacity:1"
       aria-label="t">
      <path
         id="path69"
         style="font-size:40px;font-family:IDMeiLingTi;fill:#1d1f21;fill-opacity:1"
         d="m 154.10438,-7.7875 h 2.8 v -6.84 h 5.76 v 6.84 h 4.56 q 0,1.32 -0.52,2.12 -0.48,0.76 -2,0.76 h -2.04 v 16.32 h 4.88 q 0,1.28 -0.52,2.04 -0.48,0.8 -2,0.8 h -3.68 q -2.36,0 -3.4,-1.32 -1.04,-1.28 -1.04,-3.68 v -14.16 h -2.8 z" />
    </g>
    <g
       id="text34"
       style="font-size:40px;font-family:IDMeiLingTi;fill:#1d1f21;fill-opacity:1"
       aria-label="i">
      <path
         id="path72"
         style="font-size:40px;font-family:IDMeiLingTi;fill:#1d1f21;fill-opacity:1"
         d="m 173.64438,-6.81 v 21.6 h 5.2 v -21.6 z m 5.2,-8 v 4.28 h -5.2 v -4.28 z" />
    </g>
    <g
       id="text36"
       style="font-size:40px;font-family:IDMeiLingTi;fill:#1d1f21;fill-opacity:1"
       aria-label="a">
      <path
         id="path75"
         style="font-size:40px;font-family:IDMeiLingTi;fill:#1d1f21;fill-opacity:1"
         d="m 203.33438,10.6875 h -14.56 q -4.16,0.16 -4.28,-4.12 v -9.12 h 14.64 v -5.68 h -14.64 v -2.6 h 20.4 v 18.92 h 1.28 q 0,1.24 -0.72,1.92 -0.68,0.68 -2.12,0.68 z m -13.08,-10.36 v 7.76 h 8.88 v -7.76 z" />
    </g>
    <g
       id="text38"
       style="font-size:40px;font-family:IDMeiLingTi;fill:#1d1f21;fill-opacity:1"
       aria-label="O">
      <path
         id="path78"
         style="font-size:40px;font-family:IDMeiLingTi;fill:#1d1f21;fill-opacity:1"
         d="m 237.70438,-14.77 v 25.2 q 0,4.4 -4.44,4.4 h -21.72 v -29.6 z m -20.08,2.84 v 24 h 14 v -24 z" />
    </g>
    <g
       id="text40"
       style="font-size:40px;font-family:IDMeiLingTi;fill:#1d1f21;fill-opacity:1"
       aria-label="S">
      <path
         id="path81"
         style="font-size:40px;font-family:IDMeiLingTi;fill:#1d1f21;fill-opacity:1"
         d="m 261.09938,14.75 h -17.68 v -2.84 h 16.76 V 1.47 h -12.16 q -2.28,0 -3.52,-0.96 -1.2,-0.96 -1.2,-3.2 v -8.24 q 0,-0.84 0.36,-1.56 0.36,-0.72 0.96,-1.2 0.64,-0.52 1.44,-0.8 0.84,-0.28 1.8,-0.28 h 17.8 q 0,1.36 -0.56,2.12 -0.56,0.76 -2.08,0.76 h -13.96 v 10.48 h 12.04 q 2.64,0 3.76,1.28 1.12,1.24 1.12,3.24 v 6.48 q 0,0.92 -0.24,2 -0.2,1.08 -0.84,1.8 -0.72,0.8 -1.76,1.08 -1,0.28 -2.04,0.28 z" />
    </g>
  </g>
</svg>
