<?xml version="1.0" encoding="utf-8"?>
<svg version="1.1" id="logo" xmlns="http://www.w3.org/2000/svg" xmlns:xlink="http://www.w3.org/1999/xlink" x="0px" y="0px"
	 viewBox="0 0 600 600" style="enable-background:new 0 0 600 600;" xml:space="preserve">
<style type="text/css">
	.st0{opacity:0.8;fill-rule:evenodd;clip-rule:evenodd;fill:#C9395F;enable-background:new    ;}
	.st1{opacity:0.8;fill-rule:evenodd;clip-rule:evenodd;fill:#3F8EC6;enable-background:new    ;}
	.st2{fill:#FFFFFF;}
</style>
<g id="container" transform="translate(56.897812,142.875)">
	<g id="g16">
		<path id="path4" class="st0" d="M390.79-28c-96.51-72.55-318.81,17.97-246.26,234.95s150.42,258.91,246.26,144.43
			S486.63,44.54,390.79-28z"/>
		<path id="path6" class="st1" d="M367.49,39.22C240.37-16.69-53.15,53.2,42.03,220.26s198.34,199.67,325.47,111.82
			S494.62,95.13,367.49,39.22z"/>
		<path id="ellipse8" class="st0" d="M144.15-84.57c12.33,18.28,9.98,41.44-5.26,51.72s-37.59,3.79-49.92-14.5
			s-9.98-41.44,5.26-51.72S131.82-102.85,144.15-84.57z"/>
		<g id="g14">
			<path id="circle10" class="st1" d="M109.92,293.47c0,18.38-14.9,33.28-33.28,33.28s-33.28-14.9-33.28-33.28
				s14.9-33.28,33.28-33.28S109.92,275.09,109.92,293.47z"/>
			<path id="circle12" class="st1" d="M56.67,363.35c0,9.19-7.45,16.64-16.64,16.64s-16.64-7.45-16.64-16.64
				c0-9.19,7.45-16.64,16.64-16.64S56.67,354.16,56.67,363.35z"/>
		</g>
	</g>
	<g id="text22">
		<path id="path54" class="st2" d="M311.95,255.38H200.16v-17.96h105.97v-66.01h-76.89c-9.61,0-17.03-2.02-22.26-6.07
			c-5.06-4.05-7.59-10.79-7.59-20.23v-52.1c0-3.54,0.76-6.83,2.28-9.86c1.52-3.04,3.54-5.56,6.07-7.59c2.7-2.19,5.73-3.88,9.11-5.06
			c3.54-1.18,7.33-1.77,11.38-1.77h112.55c0,5.73-1.18,10.2-3.54,13.4c-2.36,3.2-6.74,4.81-13.15,4.81h-88.27v66.26h76.13
			c11.13,0,19.05,2.7,23.77,8.09c4.72,5.23,7.08,12.06,7.08,20.49v40.97c0,3.88-0.51,8.09-1.52,12.65
			c-0.84,4.55-2.61,8.35-5.31,11.38c-3.04,3.37-6.74,5.65-11.13,6.83C320.63,254.79,316.33,255.38,311.95,255.38z"/>
	</g>
</g>
</svg>
